<mxfile host="app.diagrams.net" modified="2021-11-21T09:54:57.072Z" agent="5.0 (Windows)" etag="2WOB_eGk6CsA-5KVDwa6" version="15.8.3" type="github">
  <diagram id="Qlsg1mrHUs3pYg51-jJp" name="Page-1">
    <mxGraphModel dx="865" dy="447" grid="1" gridSize="10" guides="1" tooltips="1" connect="1" arrows="1" fold="1" page="1" pageScale="1" pageWidth="827" pageHeight="1169" math="0" shadow="0">
      <root>
        <mxCell id="0" />
        <mxCell id="1" parent="0" />
        <mxCell id="S40snBruA9V-wwDjgkCu-6" value="Телеграм бот" style="rounded=0;whiteSpace=wrap;html=1;" vertex="1" parent="1">
          <mxGeometry x="110" y="80" width="120" height="60" as="geometry" />
        </mxCell>
        <mxCell id="S40snBruA9V-wwDjgkCu-8" value="" style="endArrow=classic;html=1;rounded=0;entryX=0.75;entryY=0;entryDx=0;entryDy=0;exitX=0;exitY=1;exitDx=0;exitDy=0;" edge="1" parent="1" source="S40snBruA9V-wwDjgkCu-6" target="S40snBruA9V-wwDjgkCu-9">
          <mxGeometry width="50" height="50" relative="1" as="geometry">
            <mxPoint x="190" y="190" as="sourcePoint" />
            <mxPoint x="140" y="210" as="targetPoint" />
          </mxGeometry>
        </mxCell>
        <mxCell id="S40snBruA9V-wwDjgkCu-9" value="Отзывы" style="rounded=0;whiteSpace=wrap;html=1;" vertex="1" parent="1">
          <mxGeometry x="30" y="200" width="60" height="40" as="geometry" />
        </mxCell>
        <mxCell id="S40snBruA9V-wwDjgkCu-10" value="&lt;div&gt;Написать&lt;/div&gt;&lt;div&gt;оператору&lt;/div&gt;" style="rounded=0;whiteSpace=wrap;html=1;" vertex="1" parent="1">
          <mxGeometry x="240" y="210" width="70" height="60" as="geometry" />
        </mxCell>
        <mxCell id="S40snBruA9V-wwDjgkCu-11" value="" style="endArrow=classic;html=1;rounded=0;exitX=0.571;exitY=0.994;exitDx=0;exitDy=0;exitPerimeter=0;entryX=0.568;entryY=-0.04;entryDx=0;entryDy=0;entryPerimeter=0;" edge="1" parent="1" source="S40snBruA9V-wwDjgkCu-6" target="S40snBruA9V-wwDjgkCu-10">
          <mxGeometry width="50" height="50" relative="1" as="geometry">
            <mxPoint x="250" y="210" as="sourcePoint" />
            <mxPoint x="300" y="160" as="targetPoint" />
          </mxGeometry>
        </mxCell>
        <mxCell id="S40snBruA9V-wwDjgkCu-12" value="&lt;div&gt;Анонимные/&lt;/div&gt;&lt;div&gt;Открытые&lt;/div&gt;" style="rounded=0;whiteSpace=wrap;html=1;" vertex="1" parent="1">
          <mxGeometry y="270" width="100" height="30" as="geometry" />
        </mxCell>
        <mxCell id="S40snBruA9V-wwDjgkCu-13" value="" style="endArrow=classic;html=1;rounded=0;exitX=0.25;exitY=1;exitDx=0;exitDy=0;entryX=0.347;entryY=-0.08;entryDx=0;entryDy=0;entryPerimeter=0;" edge="1" parent="1" source="S40snBruA9V-wwDjgkCu-9" target="S40snBruA9V-wwDjgkCu-12">
          <mxGeometry width="50" height="50" relative="1" as="geometry">
            <mxPoint x="160" y="360" as="sourcePoint" />
            <mxPoint x="210" y="310" as="targetPoint" />
          </mxGeometry>
        </mxCell>
        <mxCell id="S40snBruA9V-wwDjgkCu-15" value="Открытый&lt;br&gt;микрофон" style="rounded=0;whiteSpace=wrap;html=1;" vertex="1" parent="1">
          <mxGeometry x="110" y="190" width="80" height="60" as="geometry" />
        </mxCell>
        <mxCell id="S40snBruA9V-wwDjgkCu-16" value="" style="endArrow=classic;html=1;rounded=0;exitX=0.25;exitY=1;exitDx=0;exitDy=0;entryX=0.5;entryY=0;entryDx=0;entryDy=0;" edge="1" parent="1" source="S40snBruA9V-wwDjgkCu-6" target="S40snBruA9V-wwDjgkCu-15">
          <mxGeometry width="50" height="50" relative="1" as="geometry">
            <mxPoint x="190" y="370" as="sourcePoint" />
            <mxPoint x="240" y="320" as="targetPoint" />
          </mxGeometry>
        </mxCell>
        <mxCell id="S40snBruA9V-wwDjgkCu-17" value="" style="endArrow=classic;html=1;rounded=0;exitX=0;exitY=1;exitDx=0;exitDy=0;entryX=0.75;entryY=0;entryDx=0;entryDy=0;" edge="1" parent="1" source="S40snBruA9V-wwDjgkCu-15" target="S40snBruA9V-wwDjgkCu-12">
          <mxGeometry width="50" height="50" relative="1" as="geometry">
            <mxPoint x="150" y="360" as="sourcePoint" />
            <mxPoint x="200" y="310" as="targetPoint" />
          </mxGeometry>
        </mxCell>
        <mxCell id="S40snBruA9V-wwDjgkCu-18" value="" style="endArrow=classic;html=1;rounded=0;exitX=0.25;exitY=1;exitDx=0;exitDy=0;entryX=0.5;entryY=0;entryDx=0;entryDy=0;" edge="1" parent="1" source="S40snBruA9V-wwDjgkCu-10" target="S40snBruA9V-wwDjgkCu-20">
          <mxGeometry width="50" height="50" relative="1" as="geometry">
            <mxPoint x="230" y="340" as="sourcePoint" />
            <mxPoint x="230" y="290" as="targetPoint" />
          </mxGeometry>
        </mxCell>
        <mxCell id="S40snBruA9V-wwDjgkCu-20" value="Девушка" style="rounded=0;whiteSpace=wrap;html=1;" vertex="1" parent="1">
          <mxGeometry x="200" y="300" width="60" height="40" as="geometry" />
        </mxCell>
        <mxCell id="S40snBruA9V-wwDjgkCu-21" value="Договорённость&lt;br&gt;о оплате" style="rounded=0;whiteSpace=wrap;html=1;" vertex="1" parent="1">
          <mxGeometry x="280" y="300" width="100" height="40" as="geometry" />
        </mxCell>
        <mxCell id="S40snBruA9V-wwDjgkCu-22" value="" style="endArrow=classic;html=1;rounded=0;exitX=0.75;exitY=1;exitDx=0;exitDy=0;entryX=0.5;entryY=0;entryDx=0;entryDy=0;" edge="1" parent="1" source="S40snBruA9V-wwDjgkCu-10" target="S40snBruA9V-wwDjgkCu-21">
          <mxGeometry width="50" height="50" relative="1" as="geometry">
            <mxPoint x="320" y="310" as="sourcePoint" />
            <mxPoint x="370" y="260" as="targetPoint" />
          </mxGeometry>
        </mxCell>
        <mxCell id="S40snBruA9V-wwDjgkCu-23" value="Набор в команду" style="rounded=0;whiteSpace=wrap;html=1;" vertex="1" parent="1">
          <mxGeometry x="290" y="80" width="80" height="40" as="geometry" />
        </mxCell>
        <mxCell id="S40snBruA9V-wwDjgkCu-28" value="" style="endArrow=classic;html=1;rounded=0;exitX=1;exitY=0.25;exitDx=0;exitDy=0;entryX=0;entryY=0.25;entryDx=0;entryDy=0;" edge="1" parent="1" source="S40snBruA9V-wwDjgkCu-6" target="S40snBruA9V-wwDjgkCu-23">
          <mxGeometry relative="1" as="geometry">
            <mxPoint x="410" y="140" as="sourcePoint" />
            <mxPoint x="510" y="140" as="targetPoint" />
          </mxGeometry>
        </mxCell>
        <mxCell id="S40snBruA9V-wwDjgkCu-29" value="&lt;div&gt;?&lt;/div&gt;" style="edgeLabel;resizable=0;html=1;align=center;verticalAlign=middle;" connectable="0" vertex="1" parent="S40snBruA9V-wwDjgkCu-28">
          <mxGeometry relative="1" as="geometry" />
        </mxCell>
        <mxCell id="S40snBruA9V-wwDjgkCu-30" value="Оформление" style="rounded=0;whiteSpace=wrap;html=1;" vertex="1" parent="1">
          <mxGeometry x="360" y="190" width="100" height="30" as="geometry" />
        </mxCell>
        <mxCell id="S40snBruA9V-wwDjgkCu-31" value="" style="endArrow=classic;html=1;rounded=0;exitX=1;exitY=1;exitDx=0;exitDy=0;" edge="1" parent="1" source="S40snBruA9V-wwDjgkCu-6" target="S40snBruA9V-wwDjgkCu-30">
          <mxGeometry width="50" height="50" relative="1" as="geometry">
            <mxPoint x="400" y="390" as="sourcePoint" />
            <mxPoint x="450" y="340" as="targetPoint" />
          </mxGeometry>
        </mxCell>
        <mxCell id="S40snBruA9V-wwDjgkCu-32" value="" style="endArrow=classic;html=1;rounded=0;exitX=0.25;exitY=1;exitDx=0;exitDy=0;" edge="1" parent="1" source="S40snBruA9V-wwDjgkCu-30" target="S40snBruA9V-wwDjgkCu-33">
          <mxGeometry width="50" height="50" relative="1" as="geometry">
            <mxPoint x="390" y="310" as="sourcePoint" />
            <mxPoint x="380" y="260" as="targetPoint" />
          </mxGeometry>
        </mxCell>
        <mxCell id="S40snBruA9V-wwDjgkCu-33" value="Лого" style="rounded=0;whiteSpace=wrap;html=1;" vertex="1" parent="1">
          <mxGeometry x="330" y="240" width="60" height="30" as="geometry" />
        </mxCell>
        <mxCell id="S40snBruA9V-wwDjgkCu-34" value="Описание бота" style="rounded=0;whiteSpace=wrap;html=1;" vertex="1" parent="1">
          <mxGeometry x="414" y="240" width="96" height="30" as="geometry" />
        </mxCell>
        <mxCell id="S40snBruA9V-wwDjgkCu-35" value="" style="endArrow=classic;html=1;rounded=0;exitX=0.75;exitY=1;exitDx=0;exitDy=0;entryX=0.25;entryY=0;entryDx=0;entryDy=0;" edge="1" parent="1" source="S40snBruA9V-wwDjgkCu-30" target="S40snBruA9V-wwDjgkCu-34">
          <mxGeometry width="50" height="50" relative="1" as="geometry">
            <mxPoint x="480" y="240" as="sourcePoint" />
            <mxPoint x="530" y="190" as="targetPoint" />
          </mxGeometry>
        </mxCell>
        <mxCell id="S40snBruA9V-wwDjgkCu-36" value="" style="endArrow=classic;html=1;rounded=0;exitX=0.25;exitY=1;exitDx=0;exitDy=0;entryX=0.66;entryY=-0.029;entryDx=0;entryDy=0;entryPerimeter=0;" edge="1" parent="1" source="S40snBruA9V-wwDjgkCu-21" target="S40snBruA9V-wwDjgkCu-37">
          <mxGeometry width="50" height="50" relative="1" as="geometry">
            <mxPoint x="300" y="410" as="sourcePoint" />
            <mxPoint x="290" y="390" as="targetPoint" />
          </mxGeometry>
        </mxCell>
        <mxCell id="S40snBruA9V-wwDjgkCu-37" value="Отправка на&lt;br&gt;исполнителя" style="rounded=0;whiteSpace=wrap;html=1;" vertex="1" parent="1">
          <mxGeometry x="210" y="360" width="100" height="40" as="geometry" />
        </mxCell>
        <mxCell id="S40snBruA9V-wwDjgkCu-38" value="" style="endArrow=classic;html=1;rounded=0;exitX=0;exitY=0.75;exitDx=0;exitDy=0;entryX=0.5;entryY=0;entryDx=0;entryDy=0;" edge="1" parent="1" source="S40snBruA9V-wwDjgkCu-10" target="S40snBruA9V-wwDjgkCu-39">
          <mxGeometry width="50" height="50" relative="1" as="geometry">
            <mxPoint x="130" y="360" as="sourcePoint" />
            <mxPoint x="180" y="280" as="targetPoint" />
          </mxGeometry>
        </mxCell>
        <mxCell id="S40snBruA9V-wwDjgkCu-39" value="Предлагает&lt;br&gt;оставить отзыв" style="rounded=0;whiteSpace=wrap;html=1;" vertex="1" parent="1">
          <mxGeometry x="100" y="310" width="90" height="30" as="geometry" />
        </mxCell>
        <mxCell id="S40snBruA9V-wwDjgkCu-41" value="Завлечение&lt;br&gt;клиентов" style="rounded=0;whiteSpace=wrap;html=1;" vertex="1" parent="1">
          <mxGeometry x="270" y="10" width="80" height="40" as="geometry" />
        </mxCell>
        <mxCell id="S40snBruA9V-wwDjgkCu-42" value="" style="endArrow=classic;html=1;rounded=0;exitX=1;exitY=0.5;exitDx=0;exitDy=0;entryX=0;entryY=0.5;entryDx=0;entryDy=0;" edge="1" parent="1" source="S40snBruA9V-wwDjgkCu-45" target="S40snBruA9V-wwDjgkCu-41">
          <mxGeometry width="50" height="50" relative="1" as="geometry">
            <mxPoint x="270" y="200" as="sourcePoint" />
            <mxPoint x="320" y="150" as="targetPoint" />
          </mxGeometry>
        </mxCell>
        <mxCell id="S40snBruA9V-wwDjgkCu-43" value="&lt;div&gt;Пишет девушка&lt;/div&gt;&lt;div&gt;в чате&lt;/div&gt;" style="rounded=0;whiteSpace=wrap;html=1;" vertex="1" parent="1">
          <mxGeometry x="380" y="10" width="100" height="40" as="geometry" />
        </mxCell>
        <mxCell id="S40snBruA9V-wwDjgkCu-44" value="" style="endArrow=classic;html=1;rounded=0;exitX=1;exitY=0.5;exitDx=0;exitDy=0;entryX=0;entryY=0.5;entryDx=0;entryDy=0;" edge="1" parent="1" source="S40snBruA9V-wwDjgkCu-41" target="S40snBruA9V-wwDjgkCu-43">
          <mxGeometry width="50" height="50" relative="1" as="geometry">
            <mxPoint x="560" y="330" as="sourcePoint" />
            <mxPoint x="610" y="280" as="targetPoint" />
          </mxGeometry>
        </mxCell>
        <mxCell id="S40snBruA9V-wwDjgkCu-45" value="&lt;div&gt;Проект&lt;/div&gt;" style="rounded=0;whiteSpace=wrap;html=1;" vertex="1" parent="1">
          <mxGeometry x="110" width="120" height="60" as="geometry" />
        </mxCell>
        <mxCell id="S40snBruA9V-wwDjgkCu-46" value="" style="endArrow=classic;html=1;rounded=0;exitX=0.5;exitY=1;exitDx=0;exitDy=0;entryX=0.5;entryY=0;entryDx=0;entryDy=0;" edge="1" parent="1" source="S40snBruA9V-wwDjgkCu-45" target="S40snBruA9V-wwDjgkCu-6">
          <mxGeometry width="50" height="50" relative="1" as="geometry">
            <mxPoint x="380" y="40" as="sourcePoint" />
            <mxPoint x="430" y="-10" as="targetPoint" />
          </mxGeometry>
        </mxCell>
      </root>
    </mxGraphModel>
  </diagram>
</mxfile>
